# xmcd
#
# Track frame offsets:
#	150
#	14892
#	26985
#	44810
#	60732
#	75127
#	91190
#	107855
#	120879
#	135082
#
# Disc length: 2099 seconds
#
# Revision: 3
# Processed by: cddbd v1.5.2PL0 Copyright (c) Steve Scherf et al.
# Submitted via: audiograbber 1.83.01
#
DISCID=7908310a
DTITLE=Patty Loveless - Only What I Feel
DYEAR=1993
DGENRE=Country
TTITLE0=You Will
TTITLE1=How About You
TTITLE2=Nothin' But The Wheel
TTITLE3=Love Builds The Bridges (Pride Builds The Walls)
TTITLE4=Mr. Man In The Moon
TTITLE5=Blame It On Your Heart
TTITLE6=You Don't Know How Lucky You Are
TTITLE7=All I Need (Is Not To Need You)
TTITLE8=What's A Broken Heart
TTITLE9=How Can I Help You Say Goodbye
EXTD=
EXTT0=
EXTT1=
EXTT2=
EXTT3=
EXTT4=
EXTT5=
EXTT6=
EXTT7=
EXTT8=
EXTT9=
PLAYORDER=
